PathFileType	4	(X/Y/Z)	/Users/itak/Documents/Research/Walk-IL/dataset/trc/00389_00012.trc
DataRate	CameraRate	NumFrames	NumMarkers	Units	OrigDataRate	OrigDataStartFrame	OrigNumFrames
100.000000	100.000000	4	53	mm	100.000000	152	608
Frame#	Time	RPSI			LPSI			L3			STRN			T10			C7			CLAV			RBAK			LBAK			LSHO			LUPA			LAEL			LAOL			LWTS			LWPS			LFRA			LIFD			LHPS			LHTS			RSHO			RUPA			RAEL			RAOL			RWTS			RWPS			RFRA			RIFD			RHTS			RHPS			RBHD			LFHD			RFHD			LBHD			LHIP			RHIP			RASI			LASI			LKNE			LTHI			LANK			LTIP			LTOE			LMT1			LMT5			LHEE			RKNE			RANK			RTIP			RTOE			RMT1			RMT5			RHEE			RTHI			
		X1	Y1	Z1	X2	Y2	Z2	X3	Y3	Z3	X4	Y4	Z4	X5	Y5	Z5	X6	Y6	Z6	X7	Y7	Z7	X8	Y8	Z8	X9	Y9	Z9	X10	Y10	Z10	X11	Y11	Z11	X12	Y12	Z12	X13	Y13	Z13	X14	Y14	Z14	X15	Y15	Z15	X16	Y16	Z16	X17	Y17	Z17	X18	Y18	Z18	X19	Y19	Z19	X20	Y20	Z20	X21	Y21	Z21	X22	Y22	Z22	X23	Y23	Z23	X24	Y24	Z24	X25	Y25	Z25	X26	Y26	Z26	X27	Y27	Z27	X28	Y28	Z28	X29	Y29	Z29	X30	Y30	Z30	X31	Y31	Z31	X32	Y32	Z32	X33	Y33	Z33	X34	Y34	Z34	X35	Y35	Z35	X36	Y36	Z36	X37	Y37	Z37	X38	Y38	Z38	X39	Y39	Z39	X40	Y40	Z40	X41	Y41	Z41	X42	Y42	Z42	X43	Y43	Z43	X44	Y44	Z44	X45	Y45	Z45	X46	Y46	Z46	X47	Y47	Z47	X48	Y48	Z48	X49	Y49	Z49	X50	Y50	Z50	X51	Y51	Z51	X52	Y52	Z52	X53	Y53	Z53	

153	1.52	935.49755859375	978.129150390625	10.38286113739014	928.6573486328125	970.2523193359375	-120.3816375732422	934.7628784179688	1044.303588867188	-53.67690277099609	1172.661743164062	1209.638427734375	-53.72602462768555	925.7366333007812	1149.240966796875	-58.59296035766602	956.4251708984375	1399.15234375	-70.72329711914062	1115.388061523438	1327.379150390625	-58.36441421508789	916.7289428710938	1251.848876953125	-3.011954069137573	946.70703125	1360.421264648438	-174.51318359375	1036.531005859375	1377.66796875	-221.9579467773438	1023.168823242188	1258.192260742188	-290.0119323730469	1064.008544921875	1062.290649414062	-303.2184143066406	997.7542724609375	1038.949829101562	-253.5209808349609	1157.114379882812	857.8594970703125	-222.4916839599609	1130.274169921875	837.4461059570312	-297.9139709472656	1092.589965820312	959.406005859375	-303.3716735839844	1167.5849609375	676.9251708984375	-215.97412109375	1146.688720703125	754.2757568359375	-282.1861877441406	1186.46826171875	762.779541015625	-231.6988220214844	1010.748474121094	1381.391845703125	91.52269744873047	998.1304931640625	1315.191284179688	150.4709014892578	1020.691955566406	1053.102905273438	186.8888702392578	1001.849792480469	1041.11376953125	96.19461822509766	1157.379760742188	844.3235473632812	149.260009765625	1120.080078125	830.8871459960938	211.7624359130859	1050.989868164062	988.9690551757812	201.0515594482422	1167.991943359375	671.968017578125	151.9427490234375	1183.755493164062	741.6658325195312	167.7529907226562	1129.175659179688	741.8128662109375	210.0757446289062	992.51806640625	1589.835571289062	16.80461692810059	1144.588989257812	1595.850219726562	-111.2412185668945	1125.863891601562	1598.885009765625	10.06306457519531	999.2991333007812	1584.02197265625	-143.7556610107422	1012.253356933594	957.5252075195312	-234.7305297851562	1028.687744140625	952.710205078125	126.2134704589844	1152.706298828125	963.857421875	67.84423828125	1132.27783203125	957.7125854492188	-195.8854370117188	1044.006713867188	465.0000915527344	-208.3294982910156	1043.989990234375	608.0474243164062	-221.6309967041016	929.08837890625	33.000732421875	-162.5544128417969	982.044189453125	236.9976348876953	-198.3948516845703	1145.646484375	33.27151489257812	-104.0976104736328	1066.130737304688	35.38300704956055	-71.78029632568359	1056.753540039062	32.48734664916992	-175.7231597900391	892.5689086914062	31.72043609619141	-105.2490615844727	1041.21875	466.2768249511719	98.23883056640625	972.0310668945312	45.83175659179688	60.16304016113281	1042.5751953125	340.0610961914062	81.21282196044922	1150.799926757812	28.48537445068359	-8.267472267150879	1073.672119140625	33.70782089233398	-34.18745040893555	1057.005126953125	38.87460708618164	61.87064361572266	896.379150390625	33.01531600952148	7.622300624847412	1087.12939453125	732.40234375	127.5639724731445	
154	1.53	935.3643188476562	978.1528930664062	10.3320894241333	928.56005859375	970.2883911132812	-120.4086837768555	934.7616577148438	1044.326416015625	-53.70608139038086	1172.609130859375	1209.63134765625	-53.67488098144531	925.7811889648438	1149.27001953125	-58.61837768554688	956.392578125	1399.164672851562	-70.71862030029297	1115.341674804688	1327.379638671875	-58.30120086669922	916.656005859375	1251.838134765625	-3.050402164459229	946.7295532226562	1360.474243164062	-174.5215454101562	1036.562133789062	1377.715454101562	-221.9346160888672	1023.240539550781	1258.259399414062	-289.996337890625	1064.067260742188	1062.34326171875	-303.2153015136719	997.7872314453125	1038.994506835938	-253.5767059326172	1157.109130859375	857.8847045898438	-222.4909973144531	1130.296875	837.4868774414062	-297.9262390136719	1092.643188476562	959.4658203125	-303.3822937011719	1167.529541015625	676.952880859375	-216.0253448486328	1146.69384765625	754.3154907226562	-282.2008666992188	1186.4755859375	762.8546142578125	-231.7343597412109	1010.648559570312	1381.411865234375	91.55088806152344	998.02685546875	1315.182861328125	150.4759979248047	1020.616333007812	1053.086669921875	186.8914947509766	1001.657409667969	1041.126220703125	96.14178466796875	1157.292846679688	844.3233032226562	149.2291870117188	1119.942138671875	830.8667602539062	211.7152099609375	1050.903930664062	988.9547119140625	201.0383758544922	1167.936279296875	671.9733276367188	151.9043579101562	1183.6865234375	741.6665649414062	167.7320861816406	1128.971801757812	741.7757568359375	209.979248046875	992.6849365234375	1589.838256835938	16.95292091369629	1144.307495117188	1596.082275390625	-111.82958984375	1125.886840820312	1598.998657226562	9.745480537414551	998.7944946289062	1583.890380859375	-143.6132659912109	1012.240844726562	957.544677734375	-234.7458343505859	1028.592041015625	952.7443237304688	126.1900177001953	1152.592163085938	963.8590698242188	67.84568023681641	1132.24072265625	957.7460327148438	-195.8719940185547	1044.006958007812	464.9933471679688	-208.3363037109375	1043.965576171875	608.0443725585938	-221.6377105712891	929.0875854492188	32.98921966552734	-162.5598297119141	982.0453491210938	236.998046875	-198.3963470458984	1145.646362304688	33.26850509643555	-104.0922622680664	1066.127685546875	35.36338806152344	-71.76739501953125	1056.762084960938	32.49332427978516	-175.7294769287109	892.5667114257812	31.72002983093262	-105.2545394897461	1041.208374023438	466.2953796386719	98.234619140625	972.0202026367188	45.83659744262695	60.15318298339844	1042.551147460938	340.065673828125	81.19919586181641	1150.799194335938	28.48078918457031	-8.264572143554688	1073.673461914062	33.70723342895508	-34.19074630737305	1057.013305664062	38.87221145629883	61.87853240966797	896.306396484375	33.03296279907227	7.605434417724609	1087.411376953125	732.3851318359375	127.3793411254883	
155	1.54	935.2671508789062	978.1715698242188	10.29714298248291	928.4580078125	970.3163452148438	-120.4333419799805	934.7556762695312	1044.349365234375	-53.73150634765625	1172.560913085938	1209.629028320312	-53.6227912902832	925.8209838867188	1149.308837890625	-58.63711929321289	956.3602294921875	1399.178344726562	-70.71279144287109	1115.288452148438	1327.370483398438	-58.22319793701172	916.5967407226562	1251.82958984375	-3.084429025650024	946.7589721679688	1360.532348632812	-174.5290069580078	1036.595947265625	1377.76318359375	-221.9075775146484	1023.317810058594	1258.328125	-289.9780578613281	1064.125610351562	1062.394165039062	-303.204345703125	997.8182983398438	1039.04248046875	-253.6288604736328	1157.098876953125	857.9052734375	-222.4792327880859	1130.306884765625	837.5157470703125	-297.927734375	1092.686889648438	959.524169921875	-303.3843994140625	1167.439453125	676.9424438476562	-216.0688781738281	1146.688354492188	754.3544311523438	-282.2025146484375	1186.48291015625	762.942626953125	-231.7764434814453	1010.557556152344	1381.43701171875	91.59239196777344	997.93212890625	1315.17919921875	150.4886169433594	1020.534790039062	1053.072875976562	186.8961791992188	1001.453308105469	1041.14306640625	96.09050750732422	1157.207275390625	844.3221435546875	149.2114410400391	1119.797485351562	830.84716796875	211.6814422607422	1050.803833007812	988.9402465820312	201.0289916992188	1167.877563476562	671.9771118164062	151.8761596679688	1183.598876953125	741.6661987304688	167.7243041992188	1128.694458007812	741.736572265625	209.8682556152344	992.8121948242188	1589.84326171875	17.08462905883789	1144.073608398438	1596.3994140625	-112.4619064331055	1125.842407226562	1599.121704101562	9.441899299621582	998.3269653320312	1583.760986328125	-143.49462890625	1012.225524902344	957.5657348632812	-234.7515411376953	1028.475708007812	952.7726440429688	126.1667633056641	1152.466064453125	963.8603515625	67.85276031494141	1132.201049804688	957.7841186523438	-195.8559265136719	1044.004760742188	464.9878540039062	-208.3417205810547	1043.934204101562	608.0392456054688	-221.6396026611328	929.0867919921875	32.97609329223633	-162.5650482177734	982.0458984375	236.9983673095703	-198.3965911865234	1145.648681640625	33.27024078369141	-104.0897827148438	1066.125366210938	35.35490417480469	-71.76084136962891	1056.76904296875	32.49884414672852	-175.7353515625	892.5665283203125	31.72101020812988	-105.2583236694336	1041.1923828125	466.3134155273438	98.23571014404297	972.0106201171875	45.84099578857422	60.14339828491211	1042.51708984375	340.0690307617188	81.18482971191406	1150.79833984375	28.47739219665527	-8.262020111083984	1073.674194335938	33.70672607421875	-34.19256210327148	1057.021484375	38.87014770507812	61.88590240478516	896.26953125	33.03831100463867	7.600944519042969	1087.671997070312	732.3621826171875	127.194694519043	
156	1.55	935.2050170898438	978.183837890625	10.27621078491211	928.3551025390625	970.3330078125	-120.4574661254883	934.7428588867188	1044.37060546875	-53.75553894042969	1172.518920898438	1209.63427734375	-53.57303237915039	925.853271484375	1149.351684570312	-58.65106201171875	956.3279418945312	1399.193481445312	-70.70491027832031	1115.228637695312	1327.351806640625	-58.13286209106445	916.5435791015625	1251.82470703125	-3.114782094955444	946.793701171875	1360.594848632812	-174.5365142822266	1036.630859375	1377.81005859375	-221.8771362304688	1023.397216796875	1258.395751953125	-289.95849609375	1064.18115234375	1062.442504882812	-303.1860046386719	997.8447265625	1039.092041015625	-253.6762084960938	1157.085327148438	857.9246215820312	-222.4597625732422	1130.304809570312	837.5338745117188	-297.9197692871094	1092.7197265625	959.5809326171875	-303.3777770996094	1167.325927734375	676.908447265625	-216.1163482666016	1146.673095703125	754.3921508789062	-282.1914367675781	1186.48779296875	763.032958984375	-231.8193206787109	1010.477783203125	1381.465942382812	91.64564514160156	997.845947265625	1315.17919921875	150.5079803466797	1020.438537597656	1053.062255859375	186.8972473144531	1001.238220214844	1041.16162109375	96.04166412353516	1157.119018554688	844.3192138671875	149.2089233398438	1119.64794921875	830.8292846679688	211.6626434326172	1050.685424804688	988.9249267578125	201.0213317871094	1167.814086914062	671.978515625	151.8592071533203	1183.490234375	741.6633911132812	167.7290802001953	1128.370727539062	741.7001953125	209.7575836181641	992.896484375	1589.84765625	17.19493865966797	1143.880004882812	1596.7822265625	-113.1214218139648	1125.74609375	1599.257568359375	9.149958610534668	997.8977661132812	1583.63720703125	-143.4026794433594	1012.203735351562	957.5867919921875	-234.7502899169922	1028.350463867188	952.7882080078125	126.1613082885742	1152.32763671875	963.8616333007812	67.86688995361328	1132.158447265625	957.8265380859375	-195.8380737304688	1043.997802734375	464.98388671875	-208.3450775146484	1043.8955078125	608.0328369140625	-221.63671875	929.084228515625	32.96196746826172	-162.5699005126953	982.0459594726562	236.9987640380859	-198.3960266113281	1145.652221679688	33.27420043945312	-104.0894546508789	1066.123901367188	35.35580825805664	-71.75990295410156	1056.771240234375	32.50180435180664	-175.7393951416016	892.5695190429688	31.72417449951172	-105.2606811523438	1041.169311523438	466.3301086425781	98.24062347412109	971.99658203125	45.84468078613281	60.13064956665039	1042.473388671875	340.0719604492188	81.17000579833984	1150.79736328125	28.47520637512207	-8.260087966918945	1073.673950195312	33.70622634887695	-34.19318008422852	1057.0283203125	38.86957931518555	61.89043807983398	896.2630615234375	33.0361213684082	7.605594635009766	1087.92333984375	732.326416015625	127.0276718139648	
